<?xml version="1.0" encoding="UTF-8" standalone="no"?>
<!-- Created with Inkscape (http://www.inkscape.org/) -->

<svg
   width="132.3922mm"
   height="152.97198mm"
   viewBox="0 0 132.3922 152.97198"
   version="1.1"
   id="svg1"
   xml:space="preserve"
   xmlns:inkscape="http://www.inkscape.org/namespaces/inkscape"
   xmlns:sodipodi="http://sodipodi.sourceforge.net/DTD/sodipodi-0.dtd"
   xmlns="http://www.w3.org/2000/svg"
   xmlns:svg="http://www.w3.org/2000/svg"><sodipodi:namedview
     id="namedview1"
     pagecolor="#ffffff"
     bordercolor="#000000"
     borderopacity="0.25"
     inkscape:showpageshadow="2"
     inkscape:pageopacity="0.0"
     inkscape:pagecheckerboard="0"
     inkscape:deskcolor="#d1d1d1"
     inkscape:document-units="mm" /><defs
     id="defs1" /><g
     inkscape:label="Layer 1"
     inkscape:groupmode="layer"
     id="layer1"
     transform="translate(-38.770287,-79.566381)"><path
       style="fill:#ffffff"
       d="m 138.10637,232.28652 c -5.01769,-0.64544 -9.27316,-2.02712 -12.83304,-4.16667 -4.29992,-2.58432 -7.10547,-5.66212 -9.08011,-9.96119 l -1.09651,-2.38727 -2.6958,0.45391 c -8.2389,1.38724 -15.86166,1.31618 -23.423589,-0.21836 -3.677694,-0.74631 -4.44156,-1.07335 -7.692338,-3.29339 -6.532387,-4.46113 -10.540874,-10.21684 -12.050472,-17.30303 -1.326914,-6.22866 -0.322545,-14.06725 2.542606,-19.84375 2.908456,-5.86381 7.087656,-10.00535 13.091861,-12.97389 4.583226,-2.26599 9.572996,-3.25433 14.776275,-2.9268 8.279417,0.52117 14.987617,3.83029 20.088027,9.90932 3.36269,4.0079 5.27222,7.24093 7.03329,11.90809 l 1.01504,2.69006 1.06012,-1.52527 c 2.54139,-3.65647 5.42567,-9.73512 7.18922,-15.15131 3.33934,-10.25573 3.84938,-23.21021 1.35476,-34.40959 -1.47852,-6.63766 -4.92437,-14.66343 -8.36526,-19.48357 -3.46975,-4.86059 -8.87112,-9.33881 -13.8504,-11.48324 -9.66864,-4.163982 -22.430671,-3.544549 -31.290577,1.51876 -5.980206,3.4176 -10.840593,8.84213 -14.219495,15.86995 -5.475923,11.38943 -7.232165,27.39384 -4.46749,40.71165 0.790446,3.80769 1.948606,7.90425 2.970707,10.50778 0.689413,1.75609 0.825572,2.37119 0.609988,2.75564 -0.152643,0.2722 -0.676016,1.50695 -1.163049,2.74388 -4.7316,12.01691 -3.148277,23.81098 4.403057,32.79809 l 1.21412,1.44496 -1.5875,-0.89755 C 57.610123,201.64153 46.84815,187.46291 41.911461,170.40739 37.893568,156.52617 37.721758,140.56407 41.44441,127.01572 47.409079,105.30771 61.948837,89.124914 81.241432,82.721521 c 6.924495,-2.298305 12.364459,-3.155138 20.031708,-3.155138 8.83954,0 15.45641,1.17477 22.85324,4.057402 11.6573,4.542991 21.136,12.306632 28.42716,23.283605 1.01491,1.52797 2.8333,4.80219 4.04086,7.27604 5.65575,11.5866 8.22896,24.5423 7.48812,37.70155 -1.36179,24.18874 -12.48751,44.79867 -30.33177,56.18832 -2.0488,1.30771 -2.24367,1.68951 -1.54498,3.02692 0.88544,1.69487 2.92828,2.94367 6.17278,3.77347 2.34337,0.59934 4.1814,0.63385 6.99891,0.13142 4.66727,-0.8323 7.85927,-3.80594 8.70616,-8.11058 0.18406,-0.93556 0.46858,-1.60602 0.73272,-1.72661 0.77779,-0.35509 10.07567,-0.42638 13.23911,-0.10152 1.68723,0.17327 3.08405,0.33376 3.10403,0.35666 0.02,0.0229 -0.0617,1.18253 -0.18148,2.57698 -1.14353,13.31008 -10.77791,22.68128 -24.99027,24.30761 -2.74792,0.31444 -5.32634,0.30753 -7.88136,-0.0211 z m -30.21864,-35.69054 c 1.30969,-0.2602 2.72374,-0.60639 3.14233,-0.76931 0.75423,-0.29355 0.75944,-0.31073 0.57853,-1.90979 -0.3083,-2.72499 -1.38926,-6.47373 -2.44809,-8.48994 -1.09623,-2.08741 -3.6099,-4.85687 -5.10923,-5.62916 -3.11542,-1.6047 -7.96355,-1.57985 -11.21378,0.0575 -5.693159,2.86799 -8.184818,10.85495 -4.527371,14.5124 1.632,1.632 4.273547,2.43212 9.126567,2.76444 3.635614,0.24896 7.496174,0.0509 10.451044,-0.53613 z"
       id="path1" /></g></svg>
